<!DOCTYPE svg PUBLIC "-//W3C//DTD SVG 1.1//EN" "http://www.w3.org/Graphics/SVG/1.1/DTD/svg11.dtd">
<!-- Uploaded to: SVG Repo, www.svgrepo.com, Transformed by: SVG Repo Mixer Tools -->
<svg fill="#ffffff" height="800px" width="800px" version="1.1" id="Layer_1" xmlns="http://www.w3.org/2000/svg" xmlns:xlink="http://www.w3.org/1999/xlink" viewBox="0 0 512 512" xml:space="preserve" stroke="#ffffff">
<g id="SVGRepo_bgCarrier" stroke-width="0"/>
<g id="SVGRepo_tracerCarrier" stroke-linecap="round" stroke-linejoin="round"/>
<g id="SVGRepo_iconCarrier"> <g> <g> <g> <path d="M256,0C114.617,0,0,114.617,0,256s114.617,256,256,256s256-114.617,256-256S397.383,0,256,0z M256,494.933 C124.043,494.933,17.067,387.957,17.067,256S124.043,17.067,256,17.067S494.933,124.043,494.933,256S387.957,494.933,256,494.933 z"/> <path d="M138.083,172.548c17.702-15.583,44.635-13.869,60.217,3.833c5.023,5.706,14.438,2.491,14.921-5.096 c2.1-32.95-25.774-64.611-58.723-66.702c-4.703-0.298-8.758,3.273-9.057,7.976s3.273,8.758,7.976,9.057 c16.97,1.077,32.481,13.615,39.255,29.349c-21.05-10.364-47.149-7.703-65.865,8.772c-3.538,3.114-3.881,8.506-0.767,12.044 C129.154,175.318,134.546,175.661,138.083,172.548z"/> <path d="M313.7,176.38c15.582-17.702,42.514-19.416,60.217-3.833c3.538,3.114,8.93,2.771,12.044-0.767 c3.114-3.537,2.771-8.93-0.767-12.044c-18.716-16.476-44.816-19.136-65.865-8.772c6.774-15.735,22.285-28.273,39.255-29.349 c4.703-0.298,8.274-4.353,7.976-9.057s-4.353-8.274-9.056-7.976c-32.95,2.09-60.824,33.752-58.724,66.702 C299.262,178.871,308.677,182.086,313.7,176.38z"/> <path d="M256,238.933c-84.832,0-153.6,68.768-153.6,153.6c0,4.713,3.82,8.533,8.533,8.533h25.6H204.8h102.4h68.267h25.6 c4.713,0,8.533-3.821,8.533-8.533C409.6,307.701,340.832,238.933,256,238.933z M170.709,366.933h8.491h17.067V384h-49.73 C150.065,374.054,159.556,366.933,170.709,366.933z M307.2,349.867H204.8h-11.316c9.75-16.675,18.819-25.464,28.383-25.464 c8.556,0,17.648,5.079,28.437,14.751c3.241,2.906,8.15,2.906,11.392,0c10.79-9.672,19.881-14.751,28.437-14.751 c9.565,0,18.647,8.802,28.387,25.464H307.2z M213.333,366.933h85.333V384h-85.333V366.933z M315.733,384v-17.067H332.8h8.533 c11.145,0,20.628,7.124,24.143,17.067H315.733z M383.145,384c-3.954-19.474-21.171-34.133-41.811-34.133h-3.316 c-14.448-27.68-27.862-42.53-47.884-42.53c-11.929,0-22.677,5.066-34.133,14.262c-11.457-9.196-22.205-14.262-34.133-14.262 c-20.021,0-33.409,14.822-47.882,42.53h-3.275c-20.648,0-37.874,14.653-41.846,34.133h-9.135c4.405-71.431,63.73-128,136.271-128 s131.866,56.569,136.271,128H383.145z"/> </g> </g> </g> </g>
</svg>