<!DOCTYPE svg PUBLIC "-//W3C//DTD SVG 1.1//EN" "http://www.w3.org/Graphics/SVG/1.1/DTD/svg11.dtd">
<!-- Uploaded to: SVG Repo, www.svgrepo.com, Transformed by: SVG Repo Mixer Tools -->
<svg fill="#ffffff" height="800px" width="800px" version="1.1" id="Layer_1" xmlns="http://www.w3.org/2000/svg" xmlns:xlink="http://www.w3.org/1999/xlink" viewBox="0 0 512 512" xml:space="preserve" stroke="#ffffff">
<g id="SVGRepo_bgCarrier" stroke-width="0"/>
<g id="SVGRepo_tracerCarrier" stroke-linecap="round" stroke-linejoin="round"/>
<g id="SVGRepo_iconCarrier"> <g> <g> <g> <path d="M256,0C114.617,0,0,114.617,0,256s114.617,256,256,256s256-114.617,256-256S397.383,0,256,0z M256,494.933 C124.043,494.933,17.067,387.957,17.067,256S124.043,17.067,256,17.067S494.933,124.043,494.933,256S387.957,494.933,256,494.933 z"/> <path d="M363.133,317.167l-25.6-17.067c-2.866-1.911-6.601-1.911-9.467,0L307.2,314.011L286.333,300.1 c-2.866-1.911-6.601-1.911-9.467,0L256,314.011L235.133,300.1c-2.866-1.911-6.601-1.911-9.467,0L204.8,314.011L183.933,300.1 c-2.866-1.911-6.601-1.911-9.467,0l-25.6,17.067c-3.921,2.614-4.981,7.912-2.367,11.834c2.614,3.921,7.912,4.981,11.834,2.367 l20.867-13.911l20.867,13.911c2.866,1.911,6.601,1.911,9.467,0l20.867-13.911l20.867,13.911c2.866,1.911,6.601,1.911,9.467,0 l20.867-13.911l20.867,13.911c2.866,1.911,6.6,1.911,9.467,0l20.867-13.911l20.867,13.911c3.921,2.614,9.219,1.555,11.834-2.367 S367.055,319.781,363.133,317.167z"/> <path d="M204.8,187.733c0-28.273-22.927-51.2-51.2-51.2c-28.273,0-51.2,22.927-51.2,51.2s22.927,51.2,51.2,51.2 C181.873,238.933,204.8,216.007,204.8,187.733z M119.467,187.733c0-18.848,15.286-34.133,34.133-34.133 c18.848,0,34.133,15.286,34.133,34.133s-15.286,34.133-34.133,34.133C134.752,221.867,119.467,206.581,119.467,187.733z"/> <path d="M114.34,126.293c3.769,2.829,9.118,2.067,11.947-1.702c6.41-8.539,16.428-13.656,27.309-13.656 c10.895,0,20.921,5.123,27.332,13.67c2.828,3.77,8.176,4.534,11.947,1.707s4.534-8.176,1.707-11.947 c-9.602-12.802-24.663-20.497-40.986-20.497c-16.306,0-31.357,7.687-40.958,20.477 C109.809,118.115,110.571,123.464,114.34,126.293z"/> <path d="M319.121,126.293c3.769,2.829,9.118,2.067,11.947-1.702c6.41-8.539,16.428-13.656,27.309-13.656 c10.895,0,20.921,5.123,27.332,13.67c2.828,3.77,8.176,4.534,11.947,1.707c3.77-2.828,4.534-8.176,1.707-11.947 c-9.602-12.802-24.663-20.497-40.986-20.497c-16.306,0-31.357,7.687-40.958,20.477 C314.59,118.115,315.352,123.464,319.121,126.293z"/> <path d="M358.4,136.533c-28.273,0-51.2,22.927-51.2,51.2s22.927,51.2,51.2,51.2s51.2-22.927,51.2-51.2 S386.673,136.533,358.4,136.533z M358.4,221.867c-18.848,0-34.133-15.286-34.133-34.133S339.552,153.6,358.4,153.6 c18.848,0,34.133,15.286,34.133,34.133S377.248,221.867,358.4,221.867z"/> <circle cx="358.4" cy="187.733" r="8.533"/> <circle cx="153.6" cy="187.733" r="8.533"/> </g> </g> </g> </g>
</svg>