<!DOCTYPE svg PUBLIC "-//W3C//DTD SVG 1.1//EN" "http://www.w3.org/Graphics/SVG/1.1/DTD/svg11.dtd">
<!-- Uploaded to: SVG Repo, www.svgrepo.com, Transformed by: SVG Repo Mixer Tools -->
<svg fill="#ffffff" height="800px" width="800px" version="1.1" id="Layer_1" xmlns="http://www.w3.org/2000/svg" xmlns:xlink="http://www.w3.org/1999/xlink" viewBox="0 0 512 512" xml:space="preserve" stroke="#ffffff">
<g id="SVGRepo_bgCarrier" stroke-width="0"/>
<g id="SVGRepo_tracerCarrier" stroke-linecap="round" stroke-linejoin="round"/>
<g id="SVGRepo_iconCarrier"> <g> <g> <g> <path d="M256,0C114.617,0,0,114.617,0,256s114.617,256,256,256s256-114.617,256-256S397.383,0,256,0z M256,494.933 C124.043,494.933,17.067,387.957,17.067,256S124.043,17.067,256,17.067S494.933,124.043,494.933,256S387.957,494.933,256,494.933 z"/> <path d="M128,179.2c0-14.137,11.463-25.6,25.6-25.6c14.137,0,25.6,11.463,25.6,25.6c0,4.713,3.82,8.533,8.533,8.533 s8.533-3.82,8.533-8.533c0-23.563-19.104-42.667-42.667-42.667c-23.563,0-42.667,19.104-42.667,42.667 c0,4.713,3.82,8.533,8.533,8.533S128,183.913,128,179.2z"/> <path d="M358.4,136.533c-23.563,0-42.667,19.104-42.667,42.667c0,4.713,3.82,8.533,8.533,8.533s8.533-3.82,8.533-8.533 c0-14.137,11.463-25.6,25.6-25.6s25.6,11.463,25.6,25.6c0,4.713,3.821,8.533,8.533,8.533c4.713,0,8.533-3.82,8.533-8.533 C401.067,155.637,381.963,136.533,358.4,136.533z"/> <path d="M372.506,273.067H139.529c-16.185,0-25.605,18.117-16.543,31.482c29.906,44.148,78.879,70.919,132.981,70.919 c54.142,0,103.144-26.803,133.053-71.002C398.038,291.122,388.651,273.067,372.506,273.067z M374.882,294.904 c-26.776,39.569-70.521,63.497-118.916,63.497c-48.357,0-92.076-23.898-118.853-63.427c-1.424-2.099,0.001-4.84,2.416-4.84 h232.977C374.884,290.133,376.285,292.828,374.882,294.904z"/> </g> </g> </g> </g>
</svg>