<!DOCTYPE svg PUBLIC "-//W3C//DTD SVG 1.1//EN" "http://www.w3.org/Graphics/SVG/1.1/DTD/svg11.dtd">
<!-- Uploaded to: SVG Repo, www.svgrepo.com, Transformed by: SVG Repo Mixer Tools -->
<svg fill="#ffffff" height="800px" width="800px" version="1.1" id="Layer_1" xmlns="http://www.w3.org/2000/svg" xmlns:xlink="http://www.w3.org/1999/xlink" viewBox="0 0 512 512" xml:space="preserve" stroke="#ffffff">
<g id="SVGRepo_bgCarrier" stroke-width="0"/>
<g id="SVGRepo_tracerCarrier" stroke-linecap="round" stroke-linejoin="round"/>
<g id="SVGRepo_iconCarrier"> <g> <g> <g> <path d="M256,307.2c-45.975,0-86.916,24.514-109.784,63.989c-2.362,4.078-0.971,9.299,3.107,11.661 c4.078,2.362,9.299,0.971,11.661-3.107c19.868-34.298,55.241-55.477,95.016-55.477s75.148,21.179,95.016,55.477 c2.362,4.078,7.583,5.469,11.661,3.107c4.078-2.362,5.469-7.583,3.107-11.661C342.916,331.714,301.975,307.2,256,307.2z"/> <path d="M256,0C114.617,0,0,114.617,0,256s114.617,256,256,256s256-114.617,256-256S397.383,0,256,0z M256,494.933 C124.043,494.933,17.067,387.957,17.067,256S124.043,17.067,256,17.067S494.933,124.043,494.933,256S387.957,494.933,256,494.933 z"/> <path d="M221.867,153.6c0-32.992-26.741-59.733-59.733-59.733S102.4,120.608,102.4,153.6c0,32.992,26.741,59.733,59.733,59.733 S221.867,186.592,221.867,153.6z M179.2,128c0,9.427-7.64,17.067-17.067,17.067c-9.427,0-17.067-7.64-17.067-17.067 c0-9.427,7.64-17.067,17.067-17.067C171.56,110.933,179.2,118.573,179.2,128z M119.467,153.6c0-9.608,3.176-18.471,8.533-25.603 c0,0.001,0,0.002,0,0.003c0,18.853,15.281,34.133,34.133,34.133c18.853,0,34.133-15.281,34.133-34.133c0-0.001,0-0.002,0-0.003 c5.357,7.131,8.533,15.995,8.533,25.603c0,23.567-19.1,42.667-42.667,42.667C138.567,196.267,119.467,177.167,119.467,153.6z"/> <path d="M349.867,93.867c-32.992,0-59.733,26.741-59.733,59.733c0,32.992,26.741,59.733,59.733,59.733 c32.992,0,59.733-26.741,59.733-59.733C409.6,120.608,382.859,93.867,349.867,93.867z M366.933,128 c0,9.427-7.64,17.067-17.067,17.067S332.8,137.427,332.8,128c0-9.427,7.64-17.067,17.067-17.067S366.933,118.573,366.933,128z M349.867,196.267c-23.567,0-42.667-19.1-42.667-42.667c0-9.608,3.176-18.471,8.533-25.603c0,0.001,0,0.002,0,0.003 c0,18.853,15.281,34.133,34.133,34.133C368.719,162.133,384,146.853,384,128c0-0.001,0-0.002,0-0.003 c5.357,7.131,8.533,15.995,8.533,25.603C392.533,177.167,373.433,196.267,349.867,196.267z"/> </g> </g> </g> </g>
</svg>